<?xml version="1.0" encoding="iso-8859-1"?>
<!-- Generator: Adobe Illustrator 17.1.0, SVG Export Plug-In . SVG Version: 6.00 Build 0)  -->
<!DOCTYPE svg PUBLIC "-//W3C//DTD SVG 1.1//EN" "http://www.w3.org/Graphics/SVG/1.1/DTD/svg11.dtd">
<svg width="23" height="31" viewBox="0 0 23 31" fill="none" xmlns="http://www.w3.org/2000/svg">
<path d="M11.5 5C7.91596 5 5 7.91589 5 11.5C5 15.0841 7.91596 18 11.5 18C15.084 18 18 15.0841 18 11.5C18 7.91589 15.084 5 11.5 5ZM11.5 16.2515C8.87998 16.2515 6.74831 14.12 6.74831 11.4999C6.74831 8.87981 8.87998 6.74835 11.5 6.74835C14.12 6.74835 16.2517 8.87993 16.2517 11.5C16.2517 14.1201 14.1201 16.2515 11.5 16.2515Z" fill="#36357C"/>
<path d="M11.4999 0C5.15884 0 0 5.13995 0 11.4578C0 15.1014 3.06694 20.5299 4.89507 23.4413C6.09789 25.3567 7.39046 27.1798 8.53454 28.5743C10.3709 30.8127 11.0282 31 11.5001 31C11.979 31 12.5995 30.8126 14.4302 28.573C15.5768 27.1701 16.87 25.3481 18.0716 23.4427C19.9123 20.5242 23 15.086 23 11.4577C23 5.13995 17.8412 0 11.4999 0ZM16.807 22.0277C14.4483 25.8422 12.2828 28.4198 11.4891 29.0779C10.6912 28.4401 8.56093 25.9238 6.16927 22.0397C3.40793 17.5549 1.82423 13.6979 1.82423 11.4578C1.82411 6.14208 6.16465 1.81744 11.4999 1.81744C16.8352 1.81744 21.1758 6.14208 21.1758 11.4578C21.1759 13.685 19.5834 17.5375 16.807 22.0277Z" fill="#36357C"/>
</svg>

