<?xml version="1.0" encoding="utf-8"?>
<!-- Generator: Adobe Illustrator 21.0.0, SVG Export Plug-In . SVG Version: 6.00 Build 0)  -->
<svg version="1.1" id="Слой_1" xmlns="http://www.w3.org/2000/svg" xmlns:xlink="http://www.w3.org/1999/xlink" x="0px" y="0px"
	 viewBox="0 0 226.8 170.1" style="enable-background:new 0 0 226.8 170.1;" xml:space="preserve">
<style type="text/css">
	.st0{fill:#568F8E;}
	.st1{fill:none;stroke:#4B8285;stroke-width:2;stroke-linecap:square;stroke-linejoin:bevel;stroke-miterlimit:10;}
</style>
<g>
	<path class="st0" d="M33.7,135.5h3.9v0.5l-2.2,0.5v22.8l2.2,0.5v0.5H27v-0.5l2.2-0.5V140l-8.7,20.8h-1.1L8.2,140v18.9l3,1.1v0.5h-7
		v-0.5l3-1.1v-22.3l-2.6-0.5v-0.5h5c1.3,0,2.3,0.3,3,0.8c0.8,0.5,1.4,1.3,1.9,2.3l8.1,14.8l6.2-14.8c0.4-1.1,1-1.8,1.7-2.3
		C31.1,135.8,32.2,135.5,33.7,135.5z"/>
	<path class="st0" d="M43.5,144.6c1.7-1.7,4.1-2.5,7.2-2.5c3.1,0,5.4,0.8,7.2,2.5c1.7,1.7,2.6,4,2.6,6.9c0,2.9-0.9,5.3-2.6,6.9
		c-1.7,1.7-4.1,2.5-7.2,2.5c-3.1,0-5.4-0.8-7.2-2.5c-1.7-1.7-2.6-4-2.6-6.9C40.9,148.6,41.7,146.3,43.5,144.6z M48.2,158.3
		c0.7,1.3,1.5,2,2.5,2s1.8-0.7,2.5-2c0.7-1.3,1-3.6,1-6.7c0-3.2-0.3-5.4-1-6.7c-0.7-1.3-1.5-2-2.5-2s-1.8,0.7-2.5,2
		c-0.7,1.3-1,3.6-1,6.7C47.1,154.7,47.5,157,48.2,158.3z"/>
	<path class="st0" d="M74.1,142.8c-1.4,0-2.5,0.6-3.3,1.9c-0.8,1.3-1.1,3.5-1.1,6.8c0,3.2,0.4,5.4,1.1,6.7c0.8,1.3,1.9,1.9,3.3,1.9
		c1.5,0,2.7-0.5,3.8-1.4c1.1-0.9,1.6-2,1.6-3.2h0.9c0,1.5-0.7,2.8-2,3.9c-1.3,1.1-3,1.7-5,1.7c-3.1,0-5.6-0.8-7.3-2.5
		c-1.8-1.7-2.6-4-2.6-6.9c0-2.9,0.9-5.3,2.6-6.9c1.8-1.7,4.2-2.5,7.3-2.5c2.2,0,3.9,0.4,5.1,1.1c1.2,0.8,1.7,1.7,1.7,2.8
		c0,0.8-0.3,1.5-0.8,1.9c-0.5,0.5-1.2,0.7-2,0.7l-1.5-0.2v-5.3C75.5,143,74.8,142.8,74.1,142.8z"/>
	<path class="st0" d="M92.2,135c3.5,0,6.3,1.1,8.5,3.4c2.1,2.3,3.2,5.5,3.2,9.6c0,4.2-1.1,7.4-3.3,9.6c-2.2,2.3-5.3,3.4-9.2,3.4
		c-2.4,0-4.4-0.8-6-2.3c-1.6-1.5-2.5-3.3-2.5-5.4h0.9c0,1.8,0.7,3.4,2.1,4.7c1.4,1.4,3,2,4.7,2c1,0,1.9-0.2,2.7-0.6s1.5-1,2.1-1.9
		s1.1-2.1,1.5-3.6c0.3-1.5,0.5-3.4,0.6-5.5h-4.8c-0.1,0.6-0.3,1.2-0.6,1.7c-0.3,0.6-0.5,1-0.8,1.4l-0.3,0.5h-1.1v-8h1.1
		c0.9,1.1,1.4,2.3,1.7,3.6h4.8c0-4.1-0.6-7.1-1.7-9c-1.1-1.9-2.5-2.8-4.2-2.8c-0.9,0-1.8,0.2-2.6,0.6c-0.8,0.4-1.4,1-1.9,1.6
		s-0.9,1.2-1.2,1.8c-0.3,0.6-0.6,1.1-0.7,1.5l-0.2,0.6h-1.5v-6.8h0.9c0.9,0.5,1.5,1.1,2,2c0.2-0.2,0.4-0.4,0.8-0.6
		c0.3-0.3,1-0.6,2-1C90.1,135.2,91.1,135,92.2,135z"/>
	<path class="st0" d="M118.4,150.9h1.1c2.8,0,4.5,1,5.2,3l1.8,5.5l1.8,0.5v0.5h-3.9c-1.3,0-2.4-0.3-3.2-0.9s-1.3-1.3-1.6-2.2l-2-5.9
		h-2.6v7.8l2.2,0.5v0.5H107v-0.5l2.2-0.5v-15.7l-2.2-0.5v-0.5h10.3v0.5l-2.2,0.5v6.9h1.3c0.7,0,1.3-0.2,1.9-0.7
		c0.5-0.4,0.9-1,1.1-1.7l0.9-3.2c0.5-1.9,1.7-2.8,3.3-2.8c1.1,0,2,0.3,2.6,0.9c0.6,0.6,0.9,1.4,0.9,2.4c0,0.9-0.3,1.6-0.8,2.1
		c-0.5,0.5-1.2,0.8-2,0.8l-1.5-0.2v-4.8c-0.7,0.2-1.2,0.8-1.5,1.8l-0.9,3.2c-0.2,0.6-0.4,1.1-0.8,1.5c-0.3,0.4-0.6,0.7-0.9,0.8
		L118.4,150.9z"/>
	<path class="st0" d="M132.7,144.6c1.7-1.7,4.1-2.5,7.2-2.5c3.1,0,5.4,0.8,7.2,2.5c1.7,1.7,2.6,4,2.6,6.9c0,2.9-0.9,5.3-2.6,6.9
		c-1.7,1.7-4.1,2.5-7.2,2.5c-3.1,0-5.4-0.8-7.2-2.5c-1.7-1.7-2.6-4-2.6-6.9C130.1,148.6,130.9,146.3,132.7,144.6z M137.4,158.3
		c0.7,1.3,1.5,2,2.5,2c1,0,1.8-0.7,2.5-2c0.7-1.3,1-3.6,1-6.7c0-3.2-0.3-5.4-1-6.7c-0.7-1.3-1.5-2-2.5-2c-1,0-1.8,0.7-2.5,2
		c-0.7,1.3-1,3.6-1,6.7C136.3,154.7,136.7,157,137.4,158.3z"/>
	<path class="st0" d="M155.2,136.6l-2.2-0.5v-0.5h24.6v0.5l-2.2,0.5v22.8l2.2,0.5v0.5H167v-0.5l2.2-0.5v-23h-7.9v23l2.2,0.5v0.5H153
		v-0.5l2.2-0.5V136.6z"/>
	<path class="st0" d="M182.7,166.5v-22.8l-2.2-0.5v-0.5h3.3c0.7,0,1.3,0.1,1.8,0.3c0.5,0.2,0.9,0.4,1.2,0.7c0.3,0.3,0.5,0.5,0.7,0.8
		c0.2,0.3,0.3,0.5,0.4,0.7l0.1,0.3c0-0.1,0.1-0.2,0.2-0.4s0.3-0.4,0.6-0.8s0.7-0.7,1-1c0.4-0.3,0.9-0.5,1.5-0.8
		c0.6-0.2,1.3-0.3,2-0.3c2.2,0,4,0.8,5.4,2.5c1.4,1.6,2.1,4,2.1,7c0,3-0.7,5.4-2.2,7c-1.5,1.6-3.4,2.4-5.9,2.4
		c-0.8,0-1.5-0.1-2.2-0.4c-0.7-0.2-1.2-0.5-1.6-0.7l-0.5-0.4v6.9l2.2,0.5v0.5h-10.3v-0.5L182.7,166.5z M188.6,146.2v12.3
		c0.9,0.9,1.8,1.4,2.8,1.4c1.1,0,1.9-0.6,2.5-1.8c0.6-1.2,0.9-3.4,0.9-6.6c0-5.5-0.9-8.2-2.8-8.2c-0.7,0-1.3,0.2-1.8,0.7
		c-0.6,0.5-0.9,1-1.2,1.4L188.6,146.2z"/>
	<path class="st0" d="M206.5,144.6c1.7-1.7,4.1-2.5,7.2-2.5c3.1,0,5.4,0.8,7.2,2.5c1.7,1.7,2.6,4,2.6,6.9c0,2.9-0.9,5.3-2.6,6.9
		c-1.7,1.7-4.1,2.5-7.2,2.5c-3.1,0-5.4-0.8-7.2-2.5c-1.7-1.7-2.6-4-2.6-6.9C203.9,148.6,204.8,146.3,206.5,144.6z M211.2,158.3
		c0.7,1.3,1.5,2,2.5,2c1,0,1.8-0.7,2.5-2c0.7-1.3,1-3.6,1-6.7c0-3.2-0.3-5.4-1-6.7c-0.7-1.3-1.5-2-2.5-2c-1,0-1.8,0.7-2.5,2
		c-0.7,1.3-1,3.6-1,6.7C210.2,154.7,210.6,157,211.2,158.3z"/>
</g>
<g>
	<g>
		<polyline class="st1" points="98.9,7.3 112.8,1.7 134,7.7 		"/>
		<polyline class="st1" points="98.9,13.1 112.8,7.8 134,13.5 		"/>
		<polyline class="st1" points="98.9,18.8 112.8,13.8 134,19.3 		"/>
		<polyline class="st1" points="98.9,24.6 112.8,19.9 134,25 		"/>
		<polyline class="st1" points="98.9,30.4 112.8,26 134,30.8 		"/>
		<polyline class="st1" points="98.9,36.2 112.8,32.1 134,36.6 		"/>
		<polyline class="st1" points="98.9,42 112.8,38.1 134,42.4 		"/>
		<polyline class="st1" points="98.9,47.8 112.8,44.2 134,48.1 		"/>
		<polyline class="st1" points="98.9,53.6 112.8,50.3 134,53.9 		"/>
		<polyline class="st1" points="98.9,59.4 112.8,56.3 134,59.7 		"/>
		<polyline class="st1" points="98.9,65.2 112.8,62.4 134,65.4 		"/>
		<polyline class="st1" points="98.9,71 112.8,68.5 134,71.2 		"/>
		<polyline class="st1" points="98.9,76.8 112.8,74.6 134,77 		"/>
		<polyline class="st1" points="98.9,82.6 112.8,80.6 134,82.8 		"/>
		<polyline class="st1" points="98.9,88.4 112.8,86.7 134,88.5 		"/>
		<polyline class="st1" points="98.9,94.2 112.8,92.8 134,94.3 		"/>
		<polyline class="st1" points="98.9,100 112.8,98.9 134,100.1 		"/>
		<polyline class="st1" points="98.9,105.8 112.8,104.9 134,105.9 		"/>
		<polyline class="st1" points="98.9,111.6 112.8,111 134,111.6 		"/>
		<polyline class="st1" points="98.9,117.4 112.8,117.1 134,117.4 		"/>
		<polyline class="st1" points="98.9,123.2 112.8,123.2 134,123.2 		"/>
	</g>
	<g>
		<polyline class="st1" points="140.8,29 152.1,24.5 165.4,29.4 		"/>
		<polyline class="st1" points="140.8,33.8 152.1,29.5 165.4,34.1 		"/>
		<polyline class="st1" points="140.8,38.5 152.1,34.4 165.4,38.8 		"/>
		<polyline class="st1" points="140.8,43.2 152.1,39.3 165.4,43.5 		"/>
		<polyline class="st1" points="140.8,47.9 152.1,44.2 165.4,48.2 		"/>
		<polyline class="st1" points="140.8,52.6 152.1,49.2 165.4,52.9 		"/>
		<polyline class="st1" points="140.8,57.3 152.1,54.1 165.4,57.5 		"/>
		<polyline class="st1" points="140.8,62 152.1,59 165.4,62.2 		"/>
		<polyline class="st1" points="140.8,66.7 152.1,64 165.4,66.9 		"/>
		<polyline class="st1" points="140.8,71.4 152.1,68.9 165.4,71.6 		"/>
		<polyline class="st1" points="140.8,76.1 152.1,73.8 165.4,76.3 		"/>
		<polyline class="st1" points="140.8,80.8 152.1,78.8 165.4,81 		"/>
		<polyline class="st1" points="140.8,85.5 152.1,83.7 165.4,85.7 		"/>
		<polyline class="st1" points="140.8,90.2 152.1,88.6 165.4,90.4 		"/>
		<polyline class="st1" points="140.8,94.9 152.1,93.6 165.4,95 		"/>
		<polyline class="st1" points="140.8,99.6 152.1,98.5 165.4,99.7 		"/>
		<polyline class="st1" points="140.8,104.3 152.1,103.4 165.4,104.4 		"/>
		<polyline class="st1" points="140.8,109 152.1,108.4 165.4,109.1 		"/>
		<polyline class="st1" points="140.8,113.8 152.1,113.3 165.4,113.8 		"/>
		<polyline class="st1" points="140.8,118.5 152.1,118.2 165.4,118.5 		"/>
		<polyline class="st1" points="140.8,123.2 152.1,123.2 165.4,123.2 		"/>
	</g>
	<g>
		<polyline class="st1" points="68.7,40.4 78.6,36.4 91.8,40.7 		"/>
		<polyline class="st1" points="68.7,44.6 78.6,40.8 91.8,44.9 		"/>
		<polyline class="st1" points="68.7,48.7 78.6,45.1 91.8,49 		"/>
		<polyline class="st1" points="68.7,52.8 78.6,49.4 91.8,53.1 		"/>
		<polyline class="st1" points="68.7,57 78.6,53.8 91.8,57.2 		"/>
		<polyline class="st1" points="68.7,61.1 78.6,58.1 91.8,61.4 		"/>
		<polyline class="st1" points="68.7,65.2 78.6,62.5 91.8,65.5 		"/>
		<polyline class="st1" points="68.7,69.4 78.6,66.8 91.8,69.6 		"/>
		<polyline class="st1" points="68.7,73.5 78.6,71.1 91.8,73.7 		"/>
		<polyline class="st1" points="68.7,77.7 78.6,75.5 91.8,77.8 		"/>
		<polyline class="st1" points="68.7,81.8 78.6,79.8 91.8,82 		"/>
		<polyline class="st1" points="68.7,85.9 78.6,84.1 91.8,86.1 		"/>
		<polyline class="st1" points="68.7,90.1 78.6,88.5 91.8,90.2 		"/>
		<polyline class="st1" points="68.7,94.2 78.6,92.8 91.8,94.3 		"/>
		<polyline class="st1" points="68.7,98.3 78.6,97.1 91.8,98.4 		"/>
		<polyline class="st1" points="68.7,102.5 78.6,101.5 91.8,102.6 		"/>
		<polyline class="st1" points="68.7,106.6 78.6,105.8 91.8,106.7 		"/>
		<polyline class="st1" points="68.7,110.8 78.6,110.2 91.8,110.8 		"/>
		<polyline class="st1" points="68.7,114.9 78.6,114.5 91.8,114.9 		"/>
		<polyline class="st1" points="68.7,119 78.6,118.8 91.8,119 		"/>
		<polyline class="st1" points="68.7,123.2 78.6,123.2 91.8,123.2 		"/>
	</g>
	<line class="st1" x1="52.2" y1="123.2" x2="186.1" y2="123.2"/>
</g>
</svg>
