<svg width="105" height="65" viewBox="0 0 105 65" fill="none" xmlns="http://www.w3.org/2000/svg">
<path d="M40.9149 3.30453L47.2275 0.769547L56.8554 3.4856" stroke="#ACCEEE" stroke-width="1.5" stroke-miterlimit="10" stroke-linecap="square" stroke-linejoin="bevel"/>
<path d="M40.9149 5.93004L47.2275 3.53086L56.8554 6.11111" stroke="#ACCEEE" stroke-width="1.5" stroke-miterlimit="10" stroke-linecap="square" stroke-linejoin="bevel"/>
<path d="M40.9149 8.51029L47.2275 6.24691L56.8554 8.73662" stroke="#ACCEEE" stroke-width="1.5" stroke-miterlimit="10" stroke-linecap="square" stroke-linejoin="bevel"/>
<path d="M40.9149 11.1358L47.2275 9.00823L56.8554 11.3169" stroke="#ACCEEE" stroke-width="1.5" stroke-miterlimit="10" stroke-linecap="square" stroke-linejoin="bevel"/>
<path d="M40.9149 13.7613L47.2275 11.7695L56.8554 13.9424" stroke="#ACCEEE" stroke-width="1.5" stroke-miterlimit="10" stroke-linecap="square" stroke-linejoin="bevel"/>
<path d="M40.9149 16.3868L47.2275 14.5309L56.8554 16.5679" stroke="#ACCEEE" stroke-width="1.5" stroke-miterlimit="10" stroke-linecap="square" stroke-linejoin="bevel"/>
<path d="M40.9149 19.0123L47.2275 17.2469L56.8554 19.1934" stroke="#ACCEEE" stroke-width="1.5" stroke-miterlimit="10" stroke-linecap="square" stroke-linejoin="bevel"/>
<path d="M40.9149 21.6379L47.2275 20.0082L56.8554 21.7737" stroke="#ACCEEE" stroke-width="1.5" stroke-miterlimit="10" stroke-linecap="square" stroke-linejoin="bevel"/>
<path d="M40.9149 24.2634L47.2275 22.7696L56.8554 24.3992" stroke="#ACCEEE" stroke-width="1.5" stroke-miterlimit="10" stroke-linecap="square" stroke-linejoin="bevel"/>
<path d="M40.9149 26.8889L47.2275 25.4856L56.8554 27.0247" stroke="#ACCEEE" stroke-width="1.5" stroke-miterlimit="10" stroke-linecap="square" stroke-linejoin="bevel"/>
<path d="M40.9149 29.5144L47.2275 28.2469L56.8554 29.6049" stroke="#ACCEEE" stroke-width="1.5" stroke-miterlimit="10" stroke-linecap="square" stroke-linejoin="bevel"/>
<path d="M40.9149 32.1399L47.2275 31.0082L56.8554 32.2305" stroke="#ACCEEE" stroke-width="1.5" stroke-miterlimit="10" stroke-linecap="square" stroke-linejoin="bevel"/>
<path d="M40.9149 34.7654L47.2275 33.7695L56.8554 34.856" stroke="#ACCEEE" stroke-width="1.5" stroke-miterlimit="10" stroke-linecap="square" stroke-linejoin="bevel"/>
<path d="M40.9149 37.3909L47.2275 36.4856L56.8554 37.4815" stroke="#ACCEEE" stroke-width="1.5" stroke-miterlimit="10" stroke-linecap="square" stroke-linejoin="bevel"/>
<path d="M40.9149 40.0165L47.2275 39.2469L56.8554 40.0617" stroke="#ACCEEE" stroke-width="1.5" stroke-miterlimit="10" stroke-linecap="square" stroke-linejoin="bevel"/>
<path d="M40.9149 42.642L47.2275 42.0082L56.8554 42.6872" stroke="#ACCEEE" stroke-width="1.5" stroke-miterlimit="10" stroke-linecap="square" stroke-linejoin="bevel"/>
<path d="M40.9149 45.2675L47.2275 44.7695L56.8554 45.3128" stroke="#ACCEEE" stroke-width="1.5" stroke-miterlimit="10" stroke-linecap="square" stroke-linejoin="bevel"/>
<path d="M40.9149 47.893L47.2275 47.4856L56.8554 47.9383" stroke="#ACCEEE" stroke-width="1.5" stroke-miterlimit="10" stroke-linecap="square" stroke-linejoin="bevel"/>
<path d="M40.9149 50.5185L47.2275 50.2469L56.8554 50.5185" stroke="#ACCEEE" stroke-width="1.5" stroke-miterlimit="10" stroke-linecap="square" stroke-linejoin="bevel"/>
<path d="M40.9149 53.144L47.2275 53.0082L56.8554 53.144" stroke="#ACCEEE" stroke-width="1.5" stroke-miterlimit="10" stroke-linecap="square" stroke-linejoin="bevel"/>
<path d="M40.9149 55.7695H47.2275H56.8554" stroke="#ACCEEE" stroke-width="1.5" stroke-miterlimit="10" stroke-linecap="square" stroke-linejoin="bevel"/>
<path d="M59.9436 7.12757L65.0754 5.09053L71.1155 7.30864" stroke="#C7D2D9" stroke-miterlimit="10" stroke-linecap="square" stroke-linejoin="bevel"/>
<path d="M59.9436 9.30041L65.0754 7.3539L71.1155 9.43621" stroke="#C7D2D9" stroke-miterlimit="10" stroke-linecap="square" stroke-linejoin="bevel"/>
<path d="M59.9436 11.428L65.0754 9.57201L71.1155 11.5638" stroke="#C7D2D9" stroke-miterlimit="10" stroke-linecap="square" stroke-linejoin="bevel"/>
<path d="M59.9436 13.5555L65.0754 11.7901L71.1155 13.6913" stroke="#C7D2D9" stroke-miterlimit="10" stroke-linecap="square" stroke-linejoin="bevel"/>
<path d="M59.9436 15.6831L65.0754 14.0082L71.1155 15.8189" stroke="#C7D2D9" stroke-miterlimit="10" stroke-linecap="square" stroke-linejoin="bevel"/>
<path d="M59.9436 17.8107L65.0754 16.2716L71.1155 17.9465" stroke="#C7D2D9" stroke-miterlimit="10" stroke-linecap="square" stroke-linejoin="bevel"/>
<path d="M59.9436 19.9383L65.0754 18.4897L71.1155 20.0288" stroke="#C7D2D9" stroke-miterlimit="10" stroke-linecap="square" stroke-linejoin="bevel"/>
<path d="M59.9436 22.0658L65.0754 20.7078L71.1155 22.1564" stroke="#C7D2D9" stroke-miterlimit="10" stroke-linecap="square" stroke-linejoin="bevel"/>
<path d="M59.9436 24.1934L65.0754 22.9712L71.1155 24.2839" stroke="#C7D2D9" stroke-miterlimit="10" stroke-linecap="square" stroke-linejoin="bevel"/>
<path d="M59.9436 26.321L65.0754 25.1893L71.1155 26.4115" stroke="#C7D2D9" stroke-miterlimit="10" stroke-linecap="square" stroke-linejoin="bevel"/>
<path d="M59.9436 28.4486L65.0754 27.4074L71.1155 28.5391" stroke="#C7D2D9" stroke-miterlimit="10" stroke-linecap="square" stroke-linejoin="bevel"/>
<path d="M59.9436 30.5761L65.0754 29.6708L71.1155 30.6667" stroke="#C7D2D9" stroke-miterlimit="10" stroke-linecap="square" stroke-linejoin="bevel"/>
<path d="M59.9436 32.7037L65.0754 31.8889L71.1155 32.7942" stroke="#C7D2D9" stroke-miterlimit="10" stroke-linecap="square" stroke-linejoin="bevel"/>
<path d="M59.9436 34.8313L65.0754 34.107L71.1155 34.9218" stroke="#C7D2D9" stroke-miterlimit="10" stroke-linecap="square" stroke-linejoin="bevel"/>
<path d="M59.9436 36.9588L65.0754 36.3704L71.1155 37.0041" stroke="#C7D2D9" stroke-miterlimit="10" stroke-linecap="square" stroke-linejoin="bevel"/>
<path d="M59.9436 39.0864L65.0754 38.5885L71.1155 39.1317" stroke="#C7D2D9" stroke-miterlimit="10" stroke-linecap="square" stroke-linejoin="bevel"/>
<path d="M59.9436 41.214L65.0754 40.8066L71.1155 41.2593" stroke="#C7D2D9" stroke-miterlimit="10" stroke-linecap="square" stroke-linejoin="bevel"/>
<path d="M59.9436 43.3416L65.0754 43.07L71.1155 43.3868" stroke="#C7D2D9" stroke-miterlimit="10" stroke-linecap="square" stroke-linejoin="bevel"/>
<path d="M59.9436 45.5144L65.0754 45.2881L71.1155 45.5144" stroke="#C7D2D9" stroke-miterlimit="10" stroke-linecap="square" stroke-linejoin="bevel"/>
<path d="M59.9436 47.642L65.0754 47.5062L71.1155 47.642" stroke="#C7D2D9" stroke-miterlimit="10" stroke-linecap="square" stroke-linejoin="bevel"/>
<path d="M59.9436 49.7695H65.0754H71.1155" stroke="#C7D2D9" stroke-miterlimit="10" stroke-linecap="square" stroke-linejoin="bevel"/>
<path d="M27.1997 12.2881L31.6958 10.4774L37.6905 12.4239" stroke="#E0E7EA" stroke-miterlimit="10" stroke-linecap="square" stroke-linejoin="bevel"/>
<path d="M27.1997 14.1893L31.6958 12.4691L37.6905 14.3251" stroke="#E0E7EA" stroke-miterlimit="10" stroke-linecap="square" stroke-linejoin="bevel"/>
<path d="M27.1997 16.0453L31.6958 14.4156L37.6905 16.1811" stroke="#E0E7EA" stroke-miterlimit="10" stroke-linecap="square" stroke-linejoin="bevel"/>
<path d="M27.1997 17.9012L31.6958 16.3621L37.6905 18.037" stroke="#E0E7EA" stroke-miterlimit="10" stroke-linecap="square" stroke-linejoin="bevel"/>
<path d="M27.1997 19.8025L31.6958 18.3539L37.6905 19.893" stroke="#E0E7EA" stroke-miterlimit="10" stroke-linecap="square" stroke-linejoin="bevel"/>
<path d="M27.1997 21.6584L31.6958 20.3004L37.6905 21.7942" stroke="#E0E7EA" stroke-miterlimit="10" stroke-linecap="square" stroke-linejoin="bevel"/>
<path d="M27.1997 23.5144L31.6958 22.2922L37.6905 23.6502" stroke="#E0E7EA" stroke-miterlimit="10" stroke-linecap="square" stroke-linejoin="bevel"/>
<path d="M27.1997 25.4156L31.6958 24.2387L37.6905 25.5062" stroke="#E0E7EA" stroke-miterlimit="10" stroke-linecap="square" stroke-linejoin="bevel"/>
<path d="M27.1997 27.2716L31.6958 26.1852L37.6905 27.3621" stroke="#E0E7EA" stroke-miterlimit="10" stroke-linecap="square" stroke-linejoin="bevel"/>
<path d="M27.1997 29.1728L31.6958 28.177L37.6905 29.2181" stroke="#E0E7EA" stroke-miterlimit="10" stroke-linecap="square" stroke-linejoin="bevel"/>
<path d="M27.1997 31.0288L31.6958 30.1235L37.6905 31.1193" stroke="#E0E7EA" stroke-miterlimit="10" stroke-linecap="square" stroke-linejoin="bevel"/>
<path d="M27.1997 32.8848L31.6958 32.07L37.6905 32.9753" stroke="#E0E7EA" stroke-miterlimit="10" stroke-linecap="square" stroke-linejoin="bevel"/>
<path d="M27.1997 34.786L31.6958 34.0617L37.6905 34.8313" stroke="#E0E7EA" stroke-miterlimit="10" stroke-linecap="square" stroke-linejoin="bevel"/>
<path d="M27.1997 36.642L31.6958 36.0082L37.6905 36.6873" stroke="#E0E7EA" stroke-miterlimit="10" stroke-linecap="square" stroke-linejoin="bevel"/>
<path d="M27.1997 38.4979L31.6958 37.9547L37.6905 38.5432" stroke="#E0E7EA" stroke-miterlimit="10" stroke-linecap="square" stroke-linejoin="bevel"/>
<path d="M27.1997 40.3992L31.6958 39.9465L37.6905 40.4444" stroke="#E0E7EA" stroke-miterlimit="10" stroke-linecap="square" stroke-linejoin="bevel"/>
<path d="M27.1997 42.2551L31.6958 41.893L37.6905 42.3004" stroke="#E0E7EA" stroke-miterlimit="10" stroke-linecap="square" stroke-linejoin="bevel"/>
<path d="M27.1997 44.1564L31.6958 43.8848L37.6905 44.1564" stroke="#E0E7EA" stroke-miterlimit="10" stroke-linecap="square" stroke-linejoin="bevel"/>
<path d="M27.1997 46.0123L31.6958 45.8313L37.6905 46.0123" stroke="#E0E7EA" stroke-miterlimit="10" stroke-linecap="square" stroke-linejoin="bevel"/>
<path d="M27.1997 47.8683L31.6958 47.7778L37.6905 47.8683" stroke="#E0E7EA" stroke-miterlimit="10" stroke-linecap="square" stroke-linejoin="bevel"/>
<path d="M27.1997 49.7696H31.6958H37.6905" stroke="#E0E7EA" stroke-miterlimit="10" stroke-linecap="square" stroke-linejoin="bevel"/>
<rect x="35" y="53" width="30" height="11" fill="white"/>
<rect x="29" y="33" width="6" height="2" fill="white"/>
<rect x="3" y="34" width="102" height="25" fill="white"/>
<path d="M39 32.5H50H51L58.5 33.5L58 35H40L39 32.5Z" fill="white"/>
<rect x="62" y="33" width="6" height="2" fill="white"/>
<path d="M16.8631 49L14.8006 42.2793H14.7479C14.8221 43.6465 14.8592 44.5586 14.8592 45.0156V49H13.2362V40.4336H15.7088L17.7362 46.9844H17.7713L19.9217 40.4336H22.3944V49H20.701V44.9453C20.701 44.7539 20.703 44.5332 20.7069 44.2832C20.7147 44.0332 20.742 43.3691 20.7889 42.291H20.7362L18.5272 49H16.8631ZM31.8519 44.7051C31.8519 46.123 31.5003 47.2129 30.7972 47.9746C30.0941 48.7363 29.0863 49.1172 27.7738 49.1172C26.4613 49.1172 25.4534 48.7363 24.7503 47.9746C24.0472 47.2129 23.6956 46.1191 23.6956 44.6934C23.6956 43.2676 24.0472 42.1797 24.7503 41.4297C25.4573 40.6758 26.4691 40.2988 27.7855 40.2988C29.1019 40.2988 30.1077 40.6777 30.803 41.4355C31.5023 42.1934 31.8519 43.2832 31.8519 44.7051ZM25.5999 44.7051C25.5999 45.6621 25.7816 46.3828 26.1448 46.8672C26.5081 47.3516 27.0511 47.5938 27.7738 47.5938C29.223 47.5938 29.9476 46.6309 29.9476 44.7051C29.9476 42.7754 29.2269 41.8105 27.7855 41.8105C27.0628 41.8105 26.5179 42.0547 26.1507 42.543C25.7835 43.0273 25.5999 43.748 25.5999 44.7051ZM36.7859 41.8223C36.1023 41.8223 35.573 42.0801 35.198 42.5957C34.823 43.1074 34.6355 43.8223 34.6355 44.7402C34.6355 46.6504 35.3523 47.6055 36.7859 47.6055C37.3875 47.6055 38.116 47.4551 38.9715 47.1543V48.6777C38.2684 48.9707 37.4832 49.1172 36.616 49.1172C35.3699 49.1172 34.4168 48.7402 33.7566 47.9863C33.0965 47.2285 32.7664 46.1426 32.7664 44.7285C32.7664 43.8379 32.9285 43.0586 33.2527 42.3906C33.577 41.7188 34.0418 41.2051 34.6473 40.8496C35.2566 40.4902 35.9695 40.3105 36.7859 40.3105C37.618 40.3105 38.4539 40.5117 39.2938 40.9141L38.7078 42.3906C38.3875 42.2383 38.0652 42.1055 37.741 41.9922C37.4168 41.8789 37.0984 41.8223 36.7859 41.8223ZM42.4817 41.8223C42.095 41.8223 41.7141 41.877 41.3391 41.9863C40.968 42.0957 40.6009 42.2266 40.2376 42.3789L39.6634 40.9141C40.5696 40.5117 41.5208 40.3105 42.5169 40.3105C43.7864 40.3105 44.7669 40.7012 45.4583 41.4824C46.1536 42.2598 46.5013 43.3418 46.5013 44.7285C46.5013 46.1426 46.1438 47.2285 45.429 47.9863C44.718 48.7402 43.6907 49.1172 42.347 49.1172C41.4212 49.1172 40.5774 48.9707 39.8157 48.6777V47.1543C40.7649 47.4551 41.5735 47.6055 42.2415 47.6055C43.7376 47.6055 44.5208 46.8789 44.5911 45.4258H40.8763V43.9375H44.5794C44.5559 43.2734 44.3567 42.7559 43.9817 42.3848C43.6067 42.0098 43.1067 41.8223 42.4817 41.8223ZM54.781 49H52.7185L49.613 44.6582V49H47.7966V40.4336H49.613V44.582L52.6834 40.4336H54.617L51.4939 44.5469L54.781 49ZM63.0373 44.7051C63.0373 46.123 62.6858 47.2129 61.9827 47.9746C61.2795 48.7363 60.2717 49.1172 58.9592 49.1172C57.6467 49.1172 56.6389 48.7363 55.9358 47.9746C55.2327 47.2129 54.8811 46.1191 54.8811 44.6934C54.8811 43.2676 55.2327 42.1797 55.9358 41.4297C56.6428 40.6758 57.6545 40.2988 58.9709 40.2988C60.2873 40.2988 61.2932 40.6777 61.9885 41.4355C62.6877 42.1934 63.0373 43.2832 63.0373 44.7051ZM56.7854 44.7051C56.7854 45.6621 56.967 46.3828 57.3303 46.8672C57.6936 47.3516 58.2366 47.5938 58.9592 47.5938C60.4084 47.5938 61.133 46.6309 61.133 44.7051C61.133 42.7754 60.4123 41.8105 58.9709 41.8105C58.2483 41.8105 57.7034 42.0547 57.3362 42.543C56.969 43.0273 56.7854 43.748 56.7854 44.7051ZM71.112 49H69.3015V41.9453H66.1491V49H64.3327V40.4336H71.112V49ZM74.6105 44.4648H75.2082C75.7668 44.4648 76.1848 44.3555 76.4621 44.1367C76.7395 43.9141 76.8781 43.5918 76.8781 43.1699C76.8781 42.7441 76.7609 42.4297 76.5266 42.2266C76.2961 42.0234 75.9328 41.9219 75.4367 41.9219H74.6105V44.4648ZM78.7121 43.1055C78.7121 44.0273 78.423 44.7324 77.8449 45.2207C77.2707 45.709 76.4523 45.9531 75.3898 45.9531H74.6105V49H72.7941V40.4336H75.5305C76.5695 40.4336 77.3586 40.6582 77.8977 41.1074C78.4406 41.5527 78.7121 42.2188 78.7121 43.1055ZM87.6247 44.7051C87.6247 46.123 87.2731 47.2129 86.57 47.9746C85.8669 48.7363 84.8591 49.1172 83.5466 49.1172C82.2341 49.1172 81.2263 48.7363 80.5231 47.9746C79.82 47.2129 79.4684 46.1191 79.4684 44.6934C79.4684 43.2676 79.82 42.1797 80.5231 41.4297C81.2302 40.6758 82.2419 40.2988 83.5583 40.2988C84.8747 40.2988 85.8806 40.6777 86.5759 41.4355C87.2751 42.1934 87.6247 43.2832 87.6247 44.7051ZM81.3727 44.7051C81.3727 45.6621 81.5544 46.3828 81.9177 46.8672C82.2809 47.3516 82.8239 47.5938 83.5466 47.5938C84.9958 47.5938 85.7204 46.6309 85.7204 44.7051C85.7204 42.7754 84.9997 41.8105 83.5583 41.8105C82.8356 41.8105 82.2907 42.0547 81.9235 42.543C81.5563 43.0273 81.3727 43.748 81.3727 44.7051Z" fill="#0777DF"/>
<path d="M16.6297 59.0508C16.2742 59.0508 15.9831 58.9924 15.7562 58.8756V58.2713C16.0508 58.4067 16.3275 58.4744 16.5865 58.4744C16.9606 58.4744 17.1637 58.2577 17.1959 57.8244H16.1244V57.309H17.1959C17.1705 56.8909 16.9885 56.6818 16.65 56.6818C16.4486 56.6818 16.2285 56.7352 15.9898 56.8418L15.7715 56.3111C15.8984 56.2519 16.0415 56.2036 16.2006 56.1664C16.3614 56.1275 16.5214 56.108 16.6805 56.108C17.124 56.108 17.454 56.2282 17.6707 56.4686C17.8874 56.7089 17.9957 57.0695 17.9957 57.5502C17.9957 58.0445 17.8806 58.4186 17.6504 58.6725C17.4219 58.9247 17.0816 59.0508 16.6297 59.0508ZM20.5018 56.1613H21.3549L20.2301 57.5223L21.4539 59H20.5754L19.415 57.5604V59H18.6406V56.1613H19.415V57.54L20.5018 56.1613ZM22.4264 57.5756C22.4264 57.8566 22.4721 58.069 22.5635 58.2129C22.6566 58.3568 22.8072 58.4287 23.0154 58.4287C23.2219 58.4287 23.3701 58.3576 23.4598 58.2154C23.5512 58.0715 23.5969 57.8583 23.5969 57.5756C23.5969 57.2946 23.5512 57.0839 23.4598 56.9434C23.3684 56.8029 23.2186 56.7326 23.0104 56.7326C22.8038 56.7326 22.6549 56.8029 22.5635 56.9434C22.4721 57.0822 22.4264 57.2929 22.4264 57.5756ZM24.3891 57.5756C24.3891 58.0377 24.2672 58.3991 24.0234 58.6598C23.7797 58.9204 23.4403 59.0508 23.0053 59.0508C22.7327 59.0508 22.4924 58.9915 22.2842 58.873C22.076 58.7529 21.916 58.5811 21.8043 58.3576C21.6926 58.1342 21.6367 57.8735 21.6367 57.5756C21.6367 57.1118 21.7577 56.7512 21.9998 56.4939C22.2419 56.2367 22.5821 56.108 23.0205 56.108C23.293 56.108 23.5334 56.1673 23.7416 56.2857C23.9498 56.4042 24.1098 56.5743 24.2215 56.7961C24.3332 57.0178 24.3891 57.2777 24.3891 57.5756ZM27.5705 59H26.7961V56.7428H26.0826C26.0285 57.3775 25.9624 57.8515 25.8846 58.1646C25.8067 58.4761 25.7026 58.7021 25.5723 58.8426C25.4436 58.9814 25.2743 59.0508 25.0645 59.0508C24.885 59.0508 24.7378 59.0237 24.6227 58.9695V58.35C24.7056 58.3839 24.7885 58.4008 24.8715 58.4008C24.968 58.4008 25.0484 58.3314 25.1127 58.1926C25.1787 58.0538 25.2371 57.8227 25.2879 57.4994C25.3404 57.1744 25.3852 56.7284 25.4225 56.1613H27.5705V59ZM29.0025 57.5756C29.0025 57.8566 29.0482 58.069 29.1396 58.2129C29.2327 58.3568 29.3834 58.4287 29.5916 58.4287C29.7981 58.4287 29.9462 58.3576 30.0359 58.2154C30.1273 58.0715 30.173 57.8583 30.173 57.5756C30.173 57.2946 30.1273 57.0839 30.0359 56.9434C29.9445 56.8029 29.7947 56.7326 29.5865 56.7326C29.38 56.7326 29.2311 56.8029 29.1396 56.9434C29.0482 57.0822 29.0025 57.2929 29.0025 57.5756ZM30.9652 57.5756C30.9652 58.0377 30.8434 58.3991 30.5996 58.6598C30.3559 58.9204 30.0165 59.0508 29.5814 59.0508C29.3089 59.0508 29.0686 58.9915 28.8604 58.873C28.6521 58.7529 28.4922 58.5811 28.3805 58.3576C28.2688 58.1342 28.2129 57.8735 28.2129 57.5756C28.2129 57.1118 28.3339 56.7512 28.576 56.4939C28.818 56.2367 29.1583 56.108 29.5967 56.108C29.8692 56.108 30.1096 56.1673 30.3178 56.2857C30.526 56.4042 30.6859 56.5743 30.7977 56.7961C30.9094 57.0178 30.9652 57.2777 30.9652 57.5756ZM33.5652 56.1613V56.7428H32.3795V59H31.6051V56.1613H33.5652ZM34.8424 56.1613V57.2836C34.8424 57.4021 34.8229 57.6915 34.784 58.152L36.0941 56.1613H37.026V59H36.277V57.8676C36.277 57.6661 36.2939 57.3818 36.3277 57.0145L35.0227 59H34.0934V56.1613H34.8424ZM38.5215 56.1613V57.1998C38.5215 57.4469 38.6357 57.5705 38.8643 57.5705C39.0132 57.5705 39.1512 57.5536 39.2781 57.5197C39.4068 57.4859 39.5363 57.4419 39.6666 57.3877V56.1613H40.441V59H39.6666V57.8727C39.4872 57.9674 39.3204 58.0343 39.1664 58.0732C39.0124 58.1122 38.8634 58.1316 38.7195 58.1316C38.4098 58.1316 38.1702 58.0529 38.001 57.8955C37.8317 57.7364 37.7471 57.5104 37.7471 57.2176V56.1613H38.5215ZM42.4291 56.659C42.2649 56.659 42.1363 56.7115 42.0432 56.8164C41.9501 56.9197 41.8967 57.0669 41.8832 57.2582H42.9699C42.9665 57.0669 42.9166 56.9197 42.8201 56.8164C42.7236 56.7115 42.5933 56.659 42.4291 56.659ZM42.5383 59.0508C42.0813 59.0508 41.7241 58.9247 41.4668 58.6725C41.2095 58.4202 41.0809 58.0631 41.0809 57.601C41.0809 57.1253 41.1994 56.758 41.4363 56.499C41.675 56.2383 42.0042 56.108 42.424 56.108C42.8252 56.108 43.1375 56.2223 43.3609 56.4508C43.5844 56.6793 43.6961 56.995 43.6961 57.3979V57.7736H41.8654C41.8739 57.9937 41.9391 58.1655 42.0609 58.2891C42.1828 58.4126 42.3538 58.4744 42.5738 58.4744C42.7448 58.4744 42.9064 58.4566 43.0588 58.4211C43.2111 58.3855 43.3702 58.3288 43.5361 58.251V58.8502C43.4007 58.9179 43.256 58.9678 43.102 59C42.9479 59.0339 42.76 59.0508 42.5383 59.0508ZM45.4785 59.0508C44.5949 59.0508 44.1531 58.5658 44.1531 57.5959C44.1531 57.1135 44.2733 56.7453 44.5137 56.4914C44.754 56.2358 45.0985 56.108 45.5471 56.108C45.8755 56.108 46.17 56.1723 46.4307 56.301L46.2021 56.9002C46.0803 56.8511 45.9669 56.8113 45.8619 56.7809C45.757 56.7487 45.652 56.7326 45.5471 56.7326C45.1442 56.7326 44.9428 57.0187 44.9428 57.5908C44.9428 58.146 45.1442 58.4236 45.5471 58.4236C45.696 58.4236 45.834 58.4042 45.9609 58.3652C46.0879 58.3246 46.2148 58.262 46.3418 58.1773V58.84C46.2165 58.9196 46.0896 58.9746 45.9609 59.0051C45.834 59.0355 45.6732 59.0508 45.4785 59.0508ZM48.8631 56.1613H49.7162L48.5914 57.5223L49.8152 59H48.9367L47.7764 57.5604V59H47.002V56.1613H47.7764V57.54L48.8631 56.1613ZM50.9705 56.1613V57.2836C50.9705 57.4021 50.951 57.6915 50.9121 58.152L52.2223 56.1613H53.1541V59H52.4051V57.8676C52.4051 57.6661 52.422 57.3818 52.4559 57.0145L51.1508 59H50.2215V56.1613H50.9705ZM55.1447 56.659C54.9805 56.659 54.8519 56.7115 54.7588 56.8164C54.6657 56.9197 54.6124 57.0669 54.5988 57.2582H55.6855C55.6822 57.0669 55.6322 56.9197 55.5357 56.8164C55.4393 56.7115 55.3089 56.659 55.1447 56.659ZM55.2539 59.0508C54.7969 59.0508 54.4397 58.9247 54.1824 58.6725C53.9251 58.4202 53.7965 58.0631 53.7965 57.601C53.7965 57.1253 53.915 56.758 54.152 56.499C54.3906 56.2383 54.7199 56.108 55.1396 56.108C55.5408 56.108 55.8531 56.2223 56.0766 56.4508C56.3 56.6793 56.4117 56.995 56.4117 57.3979V57.7736H54.5811C54.5895 57.9937 54.6547 58.1655 54.7766 58.2891C54.8984 58.4126 55.0694 58.4744 55.2895 58.4744C55.4604 58.4744 55.6221 58.4566 55.7744 58.4211C55.9268 58.3855 56.0859 58.3288 56.2518 58.251V58.8502C56.1163 58.9179 55.9716 58.9678 55.8176 59C55.6635 59.0339 55.4756 59.0508 55.2539 59.0508ZM60.9211 56.1613V59H60.1441V56.7428H59.1158V59H58.3414V56.1613H60.9211ZM63.2926 59.0508C62.9591 59.0508 62.6976 58.9298 62.508 58.6877H62.4674C62.4945 58.9247 62.508 59.0618 62.508 59.099V60.2492H61.7336V56.1613H62.3633L62.4725 56.5295H62.508C62.6891 56.2485 62.9574 56.108 63.3129 56.108C63.648 56.108 63.9104 56.2375 64.1 56.4965C64.2896 56.7555 64.3844 57.1152 64.3844 57.5756C64.3844 57.8786 64.3395 58.1418 64.2498 58.3652C64.1618 58.5887 64.0357 58.7588 63.8715 58.8756C63.7073 58.9924 63.5143 59.0508 63.2926 59.0508ZM63.0641 56.7275C62.8728 56.7275 62.7331 56.7868 62.6451 56.9053C62.5571 57.0221 62.5114 57.2159 62.508 57.4867V57.5705C62.508 57.8752 62.5529 58.0936 62.6426 58.2256C62.734 58.3576 62.8779 58.4236 63.0742 58.4236C63.4212 58.4236 63.5947 58.1376 63.5947 57.5654C63.5947 57.2861 63.5516 57.0771 63.4652 56.9383C63.3806 56.7978 63.2469 56.7275 63.0641 56.7275ZM65.6412 57.5756C65.6412 57.8566 65.6869 58.069 65.7783 58.2129C65.8714 58.3568 66.0221 58.4287 66.2303 58.4287C66.4368 58.4287 66.5849 58.3576 66.6746 58.2154C66.766 58.0715 66.8117 57.8583 66.8117 57.5756C66.8117 57.2946 66.766 57.0839 66.6746 56.9434C66.5832 56.8029 66.4334 56.7326 66.2252 56.7326C66.0187 56.7326 65.8697 56.8029 65.7783 56.9434C65.6869 57.0822 65.6412 57.2929 65.6412 57.5756ZM67.6039 57.5756C67.6039 58.0377 67.482 58.3991 67.2383 58.6598C66.9945 58.9204 66.6551 59.0508 66.2201 59.0508C65.9476 59.0508 65.7072 58.9915 65.499 58.873C65.2908 58.7529 65.1309 58.5811 65.0191 58.3576C64.9074 58.1342 64.8516 57.8735 64.8516 57.5756C64.8516 57.1118 64.9726 56.7512 65.2146 56.4939C65.4567 56.2367 65.7969 56.108 66.2353 56.108C66.5079 56.108 66.7482 56.1673 66.9564 56.2857C67.1646 56.4042 67.3246 56.5743 67.4363 56.7961C67.548 57.0178 67.6039 57.2777 67.6039 57.5756ZM69.4193 56.659C69.2551 56.659 69.1265 56.7115 69.0334 56.8164C68.9403 56.9197 68.887 57.0669 68.8734 57.2582H69.9602C69.9568 57.0669 69.9068 56.9197 69.8103 56.8164C69.7139 56.7115 69.5835 56.659 69.4193 56.659ZM69.5285 59.0508C69.0715 59.0508 68.7143 58.9247 68.457 58.6725C68.1997 58.4202 68.0711 58.0631 68.0711 57.601C68.0711 57.1253 68.1896 56.758 68.4266 56.499C68.6652 56.2383 68.9945 56.108 69.4143 56.108C69.8154 56.108 70.1277 56.2223 70.3512 56.4508C70.5746 56.6793 70.6863 56.995 70.6863 57.3979V57.7736H68.8557C68.8641 57.9937 68.9293 58.1655 69.0512 58.2891C69.173 58.4126 69.344 58.4744 69.5641 58.4744C69.735 58.4744 69.8967 58.4566 70.049 58.4211C70.2014 58.3855 70.3605 58.3288 70.5264 58.251V58.8502C70.3909 58.9179 70.2462 58.9678 70.0922 59C69.9381 59.0339 69.7503 59.0508 69.5285 59.0508ZM73.1771 56.1613H74.0303L72.9055 57.5223L74.1293 59H73.2508L72.0904 57.5604V59H71.316V56.1613H72.0904V57.54L73.1771 56.1613ZM76.8842 56.1613V56.7428H75.9549V59H75.1805V56.7428H74.2486V56.1613H76.8842ZM78.1893 57.2582H78.5625C78.9958 57.2582 79.3166 57.3276 79.5248 57.4664C79.733 57.6052 79.8371 57.8151 79.8371 58.0961C79.8371 58.3957 79.733 58.6217 79.5248 58.774C79.3166 58.9247 79.0051 59 78.5904 59H77.4148V56.1613H78.1893V57.2582ZM79.0627 58.1063C79.0627 57.9962 79.0187 57.9167 78.9307 57.8676C78.8426 57.8185 78.7115 57.7939 78.5371 57.7939H78.1893V58.4643H78.5473C78.8909 58.4643 79.0627 58.3449 79.0627 58.1063ZM81.0228 59H80.2484V56.1613H81.0228V59Z" fill="#999999"/>
</svg>
