<svg viewBox="-32 1 511 511.999" xmlns="http://www.w3.org/2000/svg"><path d="m391.890625 430.347656c-14.367187 0-26.058594 11.691406-26.058594 26.0625s11.691407 26.058594 26.058594 26.058594c14.371094 0 26.0625-11.6875 26.0625-26.058594s-11.691406-26.0625-26.0625-26.0625zm0 37.121094c-6.097656 0-11.058594-4.960938-11.058594-11.0625 0-6.097656 4.960938-11.058594 11.058594-11.058594 6.101563 0 11.0625 4.960938 11.0625 11.058594 0 6.101562-4.960937 11.0625-11.0625 11.0625zm0 0"/><path d="m447.484375 456.410156c0-28.109375-20.976563-51.398437-48.09375-55.070312v-93.792969c0-4.140625-3.355469-7.5-7.5-7.5s-7.5 3.359375-7.5 7.5v93.777344c-22.480469 3.042969-41.378906 19.867187-46.636719 42.445312h-86.605468c-4.144532 0-7.503907 3.355469-7.503907 7.5s3.359375 7.5 7.503907 7.5h85.203124c.410157 9.5625 3.269532 18.75 8.15625 26.699219h-218.914062c-9.121094 0-16.851562-6.824219-17.980469-15.875-.019531-.164062-.046875-.332031-.078125-.496094l-2.003906-10.328125h110.613281c4.144531 0 7.5-3.355469 7.5-7.5s-3.355469-7.5-7.5-7.5h-113.515625l-57.820312-298.515625h315.839844v4.214844c0 7.074219 5.753906 12.824219 12.824218 12.824219h10.917969v110.253906c0 4.140625 3.355469 7.5 7.5 7.5s7.5-3.359375 7.5-7.5v-110.253906h14.890625c7.074219 0 12.824219-5.75 12.824219-12.824219v-63.785156c0-7.070313-5.75-12.824219-12.824219-12.824219h-14.886719v-2.699219c0-16.445312-13.382812-29.824218-29.828125-29.824218h-128.085937v-24.78125c0-8.578126-6.976563-15.554688-15.550781-15.554688h-24.253907c-8.574219 0-15.550781 6.976562-15.550781 15.554688v24.78125h-128.085938c-16.445312 0-29.824218 13.378906-29.824218 29.824218v19.738282h-12.164063c-8.574219 0-15.550781 6.976562-15.550781 15.554687v24.25c0 8.574219 6.976562 15.550781 15.550781 15.550781h13.476563l63.234375 326.464844c2.183593 16.410156 16.25 28.75 32.832031 28.75h232.460938c9.378906 7.222656 21.109374 11.53125 33.835937 11.53125 30.65625 0 55.59375-24.9375 55.59375-55.589844zm-35.378906-309.117187c-13.523438 0-22.433594 0-36.457031 0 0-33.625 0-25.925781 0-59.433594h36.457031zm-210.976563-131.738281c0-.308594.246094-.554688.550782-.554688h24.25c.304687 0 .550781.246094.550781.554688v24.78125h-25.351563zm-157.914062 54.605468c0-8.175781 6.648437-14.824218 14.824218-14.824218h311.527344c8.175782 0 14.824219 6.648437 14.824219 14.824218v2.699219h-10.917969c-7.070312 0-12.824218 5.753906-12.824218 12.824219v4.214844h-317.433594zm-27.714844 59.542969v-24.25c0-.304687.246094-.554687.550781-.554687h344.597657v25.355468c-18.046876 0-334.886719 0-344.597657 0-.304687 0-.550781-.246094-.550781-.550781zm376.390625 367.296875c-23.953125 0-42.902344-20.816406-40.355469-44.910156 2.164063-20.359375 19.4375-36.269532 40.355469-36.269532 22.382813 0 40.59375 18.207032 40.59375 40.589844 0 22.378906-18.210937 40.589844-40.59375 40.589844zm0 0"/></svg>